<?xml version="1.0" standalone="no"?>
<!DOCTYPE svg PUBLIC "-//W3C//DTD SVG 20010904//EN"
 "http://www.w3.org/TR/2001/REC-SVG-20010904/DTD/svg10.dtd">
<svg version="1.0" xmlns="http://www.w3.org/2000/svg"
 width="225.000000pt" height="225.000000pt" viewBox="0 0 225.000000 225.000000"
 preserveAspectRatio="xMidYMid meet">
<metadata>
Created by potrace 1.14, written by Peter Selinger 2001-2017
</metadata>
<g transform="translate(0.000000,225.000000) scale(0.100000,-0.100000)"
fill="#000000" stroke="none">
<path d="M1003 2233 c15 -2 39 -2 55 0 15 2 2 4 -28 4 -30 0 -43 -2 -27 -4z"/>
<path d="M1193 2233 c15 -2 39 -2 55 0 15 2 2 4 -28 4 -30 0 -43 -2 -27 -4z"/>
<path d="M890 2220 c-17 -6 -9 -7 25 -3 28 3 52 7 54 9 8 7 -54 2 -79 -6z"/>
<path d="M1281 2226 c2 -2 27 -6 54 -9 34 -4 42 -3 25 3 -25 8 -87 13 -79 6z"/>
<path d="M754 2182 c-209 -73 -401 -215 -533 -395 -77 -106 -158 -274 -175
-367 -4 -19 8 8 26 60 117 337 364 583 698 697 52 18 88 32 80 32 -8 1 -51
-12 -96 -27z"/>
<path d="M1398 2203 c7 -3 16 -2 19 1 4 3 -2 6 -13 5 -11 0 -14 -3 -6 -6z"/>
<path d="M1510 2167 c323 -123 554 -361 668 -687 18 -52 30 -79 26 -60 -10 54
-51 157 -94 237 -103 191 -261 350 -452 453 -74 40 -198 90 -221 90 -6 -1 26
-15 73 -33z"/>
<path d="M1016 1741 c-17 -3 33 -6 109 -6 76 0 126 3 109 6 -16 4 -65 7 -109
7 -44 0 -93 -3 -109 -7z"/>
<path d="M919 1715 c-45 -16 -119 -54 -119 -60 0 -3 19 4 42 16 24 12 65 30
93 40 27 10 43 18 35 18 -8 0 -31 -6 -51 -14z"/>
<path d="M1327 1706 c115 -43 210 -111 292 -211 29 -36 30 -36 9 -5 -35 54
-101 116 -169 160 -59 38 -156 81 -182 79 -7 0 16 -10 50 -23z"/>
<path d="M729 1605 c-91 -72 -186 -217 -204 -310 -3 -16 3 -7 13 20 11 28 29
70 42 95 23 46 116 170 128 170 8 1 89 70 82 70 -3 0 -30 -20 -61 -45z"/>
<path d="M1088 1581 c10 -6 10 -10 -3 -21 -37 -31 -5 -100 48 -100 25 0 67 40
67 64 0 6 -9 -4 -20 -21 -33 -55 -100 -42 -100 19 0 19 8 33 26 44 24 16 26
16 57 -6 27 -19 29 -20 14 -3 -9 11 -14 23 -10 26 3 4 -16 7 -43 7 -29 0 -44
-4 -36 -9z"/>
<path d="M1033 1573 c9 -2 23 -2 30 0 6 3 -1 5 -18 5 -16 0 -22 -2 -12 -5z"/>
<path d="M1193 1573 c9 -2 23 -2 30 0 6 3 -1 5 -18 5 -16 0 -22 -2 -12 -5z"/>
<path d="M919 1538 c-121 -60 -230 -202 -244 -318 -5 -38 -3 -35 12 20 41 147
130 248 273 307 30 12 48 23 39 23 -9 0 -45 -14 -80 -32z"/>
<path d="M1290 1547 c143 -59 232 -160 273 -307 15 -55 17 -58 12 -20 -8 69
-62 168 -124 231 -53 52 -165 119 -200 119 -9 0 9 -11 39 -23z"/>
<path d="M1671 1408 c12 -24 30 -65 41 -93 10 -27 16 -36 13 -20 -7 34 -61
155 -70 155 -3 0 4 -19 16 -42z"/>
<path d="M1097 1424 c-4 -4 -7 -63 -7 -131 l0 -123 -37 16 c-59 25 -71 27 -33
6 19 -11 45 -23 58 -26 l22 -7 0 130 0 131 40 0 40 0 0 -140 c0 -85 5 -149 12
-165 10 -22 8 -30 -9 -53 -30 -41 -65 -40 -108 2 -20 20 -41 36 -48 36 -7 0
-4 -5 5 -10 9 -6 30 -24 47 -40 39 -39 72 -39 106 2 19 23 24 37 19 52 -4 12
-10 89 -13 171 l-6 150 -40 3 c-23 2 -44 0 -48 -4z"/>
<path d="M27 1351 c-4 -18 -7 -43 -6 -55 1 -11 5 -1 10 24 5 25 7 49 6 55 -2
5 -7 -5 -10 -24z"/>
<path d="M2217 1335 c3 -27 7 -52 9 -54 7 -8 2 54 -6 79 -6 17 -7 9 -3 -25z"/>
<path d="M13 1220 c0 -30 2 -43 4 -27 2 15 2 39 0 55 -2 15 -4 2 -4 -28z"/>
<path d="M2233 1220 c0 -30 2 -43 4 -27 2 15 2 39 0 55 -2 15 -4 2 -4 -28z"/>
<path d="M504 1203 c-9 -78 1 -197 24 -263 21 -60 59 -140 67 -140 3 0 -5 21
-18 48 -52 102 -62 150 -62 285 0 70 -1 127 -2 127 -1 0 -5 -25 -9 -57z"/>
<path d="M1735 1125 c0 -76 3 -126 6 -109 4 16 7 65 7 109 0 44 -3 93 -7 109
-3 17 -6 -33 -6 -109z"/>
<path d="M907 1233 c-4 -3 -7 -11 -7 -17 0 -6 4 -5 9 3 8 12 14 13 36 3 36
-16 46 -14 15 3 -28 16 -43 18 -53 8z"/>
<path d="M886 1184 c-3 -9 -3 -20 0 -25 7 -12 115 -61 121 -56 2 2 -24 16 -57
31 -52 22 -60 29 -55 46 8 24 0 27 -9 4z"/>
<path d="M661 1128 c0 -27 2 -48 7 -48 4 0 8 -20 8 -44 1 -38 45 -156 58 -156
3 0 -6 24 -19 53 -13 28 -27 69 -31 91 -6 36 -6 38 14 27 32 -17 57 -13 82 14
20 21 22 30 14 52 -5 15 -21 34 -36 42 -25 14 -29 14 -57 -7 l-30 -22 -4 23
c-2 12 -5 1 -6 -25z m109 12 c24 -24 25 -47 3 -72 -33 -36 -93 -13 -93 37 0
24 33 55 57 55 7 0 22 -9 33 -20z"/>
<path d="M1576 1125 c-5 -27 -13 -56 -18 -62 -17 -21 -65 -15 -82 9 -9 12 -16
18 -16 12 0 -35 72 -57 99 -31 23 21 4 -61 -31 -133 -57 -117 -189 -218 -308
-236 -41 -7 -44 -6 -32 9 34 41 -21 122 -67 98 -11 -7 -28 -23 -37 -37 -16
-24 -16 -27 4 -54 15 -20 18 -30 9 -33 -6 -3 4 -6 24 -6 20 -1 38 2 42 5 3 3
26 7 52 9 113 7 263 121 323 245 32 67 56 176 50 226 -3 24 -6 20 -12 -21z
m-408 -351 c24 -17 30 -62 10 -82 -37 -37 -113 12 -89 57 10 18 37 40 51 41 3
0 16 -7 28 -16z"/>
<path d="M1476 1144 c-9 -8 -16 -20 -16 -26 0 -6 1 -9 3 -7 1 2 11 14 21 27
22 25 16 30 -8 6z"/>
<path d="M1540 1156 c0 -2 7 -9 15 -16 9 -7 15 -8 15 -2 0 5 -7 12 -15 16 -8
3 -15 4 -15 2z"/>
<path d="M13 1030 c0 -30 2 -43 4 -27 2 15 2 39 0 55 -2 15 -4 2 -4 -28z"/>
<path d="M2233 1030 c0 -30 2 -43 4 -27 2 15 2 39 0 55 -2 15 -4 2 -4 -28z"/>
<path d="M1710 938 c-7 -24 -23 -64 -36 -90 -14 -27 -22 -48 -19 -48 14 0 82
166 73 176 -3 2 -11 -15 -18 -38z"/>
<path d="M21 944 c1 -16 5 -40 9 -54 6 -17 7 -9 3 25 -6 56 -14 74 -12 29z"/>
<path d="M2216 924 c-3 -26 -4 -49 -2 -52 3 -2 8 17 11 43 4 25 5 48 3 51 -3
2 -8 -17 -12 -42z"/>
<path d="M759 843 c51 -76 183 -157 271 -168 38 -5 34 -3 -21 12 -85 24 -170
75 -227 138 -25 28 -35 36 -23 18z"/>
<path d="M41 844 c0 -11 3 -14 6 -6 3 7 2 16 -1 19 -3 4 -6 -2 -5 -13z"/>
<path d="M2201 844 c0 -11 3 -14 6 -6 3 7 2 16 -1 19 -3 4 -6 -2 -5 -13z"/>
<path d="M50 813 c0 -22 50 -146 90 -221 106 -196 270 -357 466 -459 77 -40
219 -94 246 -92 7 0 -27 13 -76 30 -328 109 -574 349 -697 679 -15 41 -28 69
-29 63z"/>
<path d="M2176 763 c-10 -31 -40 -100 -67 -152 -27 -53 -41 -87 -33 -76 39 50
134 268 122 280 -2 3 -12 -21 -22 -52z"/>
<path d="M632 746 c18 -26 53 -65 78 -85 56 -46 88 -66 40 -26 -46 39 -78 71
-118 120 l-34 40 34 -49z"/>
<path d="M1604 739 c-43 -55 -133 -128 -204 -164 -98 -49 -149 -60 -275 -60
-127 0 -177 11 -277 62 -27 13 -48 21 -48 18 0 -8 90 -51 150 -71 84 -29 272
-27 361 4 120 41 245 129 307 216 45 62 34 59 -14 -5z"/>
<path d="M2018 463 c-49 -72 -174 -193 -258 -250 -89 -60 -159 -96 -260 -135
-41 -16 -61 -26 -45 -23 49 10 168 63 241 107 92 55 195 139 261 214 55 62
108 134 99 134 -3 0 -20 -21 -38 -47z"/>
<path d="M1398 43 c7 -3 16 -2 19 1 4 3 -2 6 -13 5 -11 0 -14 -3 -6 -6z"/>
<path d="M890 30 c25 -8 87 -13 79 -6 -2 2 -26 6 -54 9 -34 4 -42 3 -25 -3z"/>
<path d="M1334 34 c-6 -3 -47 -9 -90 -14 l-79 -9 80 4 c72 4 171 23 120 23
-11 0 -25 -2 -31 -4z"/>
<path d="M1003 13 c15 -2 39 -2 55 0 15 2 2 4 -28 4 -30 0 -43 -2 -27 -4z"/>
</g>
</svg>
